<svg width="32" height="29" fill="none" xmlns="http://www.w3.org/2000/svg"><path fill-rule="evenodd" clip-rule="evenodd" d="M9.25.808C4.44.808.654 4.593.654 9.404c0 2.94 1.259 5.626 3.49 8.416 2.228 2.785 5.452 5.706 9.434 9.121l.015.014.317.29a3.115 3.115 0 0 0 4.186.007l.312-.282.078-.07c3.83-3.482 7.038-6.396 9.284-9.15 2.254-2.762 3.577-5.405 3.577-8.346 0-4.811-3.785-8.596-8.597-8.596a9.244 9.244 0 0 0-4.826 1.387A9.38 9.38 0 0 0 16 3.77a9.38 9.38 0 0 0-1.924-1.573A9.244 9.244 0 0 0 9.25.807ZM2.731 9.404c0-3.664 2.855-6.52 6.52-6.52a7.16 7.16 0 0 1 3.736 1.08 7.162 7.162 0 0 1 1.696 1.447L16 6.958l1.318-1.547a7.162 7.162 0 0 1 1.696-1.447 7.167 7.167 0 0 1 3.736-1.08c3.665 0 6.52 2.856 6.52 6.52 0 2.26-.999 4.447-3.11 7.034-2.13 2.61-5.209 5.415-9.09 8.941l-.056.051-.31.281a1.04 1.04 0 0 1-1.396-.003l-.318-.29-.035-.031-.022-.02c-3.993-3.424-7.076-6.23-9.167-8.844-2.071-2.59-3.035-4.827-3.035-7.12Z" fill="#894083"/></svg>