<svg width="25" height="24" fill="none" xmlns="http://www.w3.org/2000/svg"><path fill-rule="evenodd" clip-rule="evenodd" d="M15.616 14.621a.85.85 0 0 1 .872-.053 83.89 83.89 0 0 0 2.851.973.836.836 0 0 1 .68.963l-.495 2.874a.836.836 0 0 1-.963.68C10.85 18.73 5.676 11.404 7.005 3.692a.836.836 0 0 1 .962-.68l2.875.496c.451.077.726.506.68.962-.096.925-.076 1.61-.053 2.417l.016.596a.8.8 0 0 1-.347.786l-1.286.987c-.712 1.291 3.279 6.735 4.48 6.344l1.284-.979Zm-1.491-1.378.322-.246.046-.03a2.85 2.85 0 0 1 2.761-.248c.955.345 1.665.58 2.608.89a2.836 2.836 0 0 1 2.128 3.234l-.495 2.875a2.836 2.836 0 0 1-3.274 2.311c-8.8-1.516-14.703-9.876-13.187-18.676A2.836 2.836 0 0 1 8.307 1.04l2.874.496c1.655.285 2.466 1.813 2.33 3.138-.08.785-.066 1.326-.043 2.112.005.177.01.367.014.574a2.797 2.797 0 0 1-1.17 2.527l-.349.268c.224.497.59 1.117 1.036 1.736.383.534.78 1.005 1.126 1.351ZM11.765 9.6a.225.225 0 0 1 .001.003V9.6Z" fill="#fff"/></svg>