<svg width="13" height="18" fill="none" xmlns="http://www.w3.org/2000/svg"><path d="m8.168 11.128-.011.009-.01.008-.817.675a2.355 2.355 0 0 1-.475-.374c-.368-.357-.79-.887-1.178-1.472-.387-.585-.723-1.2-.928-1.721a3.108 3.108 0 0 1-.191-.654.91.91 0 0 1-.012-.182l.842-.701c.354-.262.493-.687.455-1.072a71.2 71.2 0 0 0-.012-.469c-.017-.662-.031-1.197.038-1.922l-.498-.047.498.047c.052-.555-.255-1.204-.92-1.328l-2.172-.407c-.654-.122-1.216.36-1.313.971-1.04 6.557 3.007 12.847 9.134 13.993.655.122 1.216-.36 1.313-.971l.375-2.357c.093-.59-.258-1.21-.872-1.35-.75-.267-1.31-.468-2.08-.771a1.1 1.1 0 0 0-1.166.095Zm-.765.723h.002-.002Z" fill="#fff" stroke="#fff"/></svg>