<svg width="26" height="26" fill="none" xmlns="http://www.w3.org/2000/svg"><path fill-rule="evenodd" clip-rule="evenodd" d="M19.891 21.163a.65.65 0 0 0 .919-.919l-6.89-6.89 6.89-6.891a.65.65 0 0 0-.919-.919l-6.89 6.89-6.891-6.89a.65.65 0 0 0-.92.919l6.892 6.89-6.891 6.891a.65.65 0 0 0 .919.919l6.89-6.89 6.891 6.89Z" fill="#894083"/><path fill-rule="evenodd" clip-rule="evenodd" d="M5.933 5.72a.4.4 0 1 0-.565.566l7.067 7.067-7.067 7.068a.4.4 0 1 0 .565.565L13 13.92l7.068 7.067a.4.4 0 1 0 .565-.565l-7.067-7.068 7.067-7.067a.4.4 0 1 0-.565-.565L13 12.788 5.933 5.721Zm-.919-.353a.9.9 0 0 1 1.272 0L13 12.081l6.714-6.714a.9.9 0 1 1 1.273 1.273l-6.714 6.713 6.714 6.714a.9.9 0 0 1-1.273 1.273L13 14.626 6.286 21.34a.9.9 0 0 1-1.272-1.273l6.714-6.714L5.014 6.64a.9.9 0 0 1 0-1.273Z" fill="#894083"/></svg>