<svg width="17" height="16" fill="none" xmlns="http://www.w3.org/2000/svg"><path fill-rule="evenodd" clip-rule="evenodd" d="m6.156 2.132-1.09.561L.8 14.928l.85.529 3.126-.289.882-2.694 2.998-.24.594 2.068.866.273 2.276-.273L8.978 2.693l-2.822-.56Zm.956 3.849L5.92 10.39l2.476-.133L7.112 5.98Z" fill="#fff"/><path d="M14.253.24c-.513 1.476-1.7 2.23-2.228 2.422v1.94l.737.112 1.09-.497c-.005 1.694-.012 5.115 0 5.243.013.129 1.406.171 2.101.177l.449-.337V.465L15.953 0c-.802.096-.862.1-1.7.24Z" fill="#fff"/></svg>