<svg width="26" height="26" fill="none" xmlns="http://www.w3.org/2000/svg"><path fill-rule="evenodd" clip-rule="evenodd" d="M8.125 2.75c-3.474 0-6.208 2.734-6.208 6.208 0 2.124.909 4.064 2.52 6.079 1.61 2.01 3.938 4.12 6.813 6.587l.012.01.229.209a2.25 2.25 0 0 0 3.023.006l.225-.204.056-.051c2.767-2.514 5.083-4.62 6.706-6.608 1.627-1.995 2.583-3.904 2.583-6.028 0-3.474-2.734-6.208-6.209-6.208a6.676 6.676 0 0 0-3.485 1.002A6.767 6.767 0 0 0 13 4.888a6.774 6.774 0 0 0-1.39-1.136A6.676 6.676 0 0 0 8.126 2.75ZM3.417 8.958c0-2.646 2.062-4.708 4.708-4.708.951 0 1.891.282 2.7.78.464.286.879.64 1.224 1.045L13 7.192l.952-1.117c.345-.405.76-.76 1.225-1.046a5.176 5.176 0 0 1 2.698-.779c2.647 0 4.709 2.062 4.709 4.708 0 1.633-.722 3.212-2.246 5.08-1.538 1.886-3.762 3.911-6.565 6.458l-.04.037-.225.203a.75.75 0 0 1-1.007-.002l-.23-.21-.026-.023-.015-.013c-2.884-2.474-5.111-4.5-6.62-6.388-1.497-1.87-2.193-3.486-2.193-5.142Z" fill="#8DC63F"/><path d="M1.917 8.958c0-3.474 2.734-6.208 6.208-6.208 1.245 0 2.455.367 3.486 1.002A6.774 6.774 0 0 1 13 4.888a6.61 6.61 0 0 1 1.389-1.136 6.676 6.676 0 0 1 3.485-1.002c3.475 0 6.209 2.734 6.209 6.208 0 2.124-.956 4.033-2.583 6.028-1.623 1.989-3.939 4.094-6.706 6.608l-.056.051-.225.204a2.25 2.25 0 0 1-3.023-.006l-.23-.209-.01-.01c-2.876-2.466-5.204-4.576-6.813-6.587-1.612-2.015-2.521-3.955-2.521-6.079Z" fill="#894083"/></svg>