<svg width="21" height="21" fill="none" xmlns="http://www.w3.org/2000/svg"><path fill-rule="evenodd" clip-rule="evenodd" d="M15.066 2.074H6.161c-1.968 0-3.563 1.65-3.563 3.686v9.217c0 2.036 1.595 3.686 3.563 3.686h8.905c1.967 0 3.562-1.65 3.562-3.686V5.76c0-2.036-1.595-3.686-3.562-3.686ZM6.161.23C3.209.23.817 2.706.817 5.76v9.217c0 3.054 2.392 5.53 5.343 5.53h8.906c2.951 0 5.343-2.476 5.343-5.53V5.76c0-3.054-2.392-5.53-5.343-5.53H6.161Zm4.452 13.825c1.968 0 3.563-1.65 3.563-3.687 0-2.036-1.595-3.686-3.563-3.686-1.967 0-3.562 1.65-3.562 3.686 0 2.037 1.595 3.687 3.562 3.687Zm0 1.844c2.951 0 5.344-2.476 5.344-5.53 0-3.055-2.393-5.53-5.344-5.53-2.95 0-5.343 2.475-5.343 5.53 0 3.054 2.392 5.53 5.343 5.53Zm5.344-10.427c.491 0 .89-.412.89-.921 0-.51-.399-.922-.89-.922-.492 0-.891.413-.891.922 0 .509.399.921.89.921Z" fill="#fff"/></svg>